<?xml version="1.0" encoding="utf-8"?>
<!-- Generator: Adobe Illustrator 19.0.0, SVG Export Plug-In . SVG Version: 6.00 Build 0)  -->
<svg version="1.1" id="Layer_1" xmlns="http://www.w3.org/2000/svg" xmlns:xlink="http://www.w3.org/1999/xlink" x="0px" y="0px"
	 viewBox="-554 437.5 72.1 76.4" style="enable-background:new -554 437.5 72.1 76.4;" xml:space="preserve">
<style type="text/css">
	.st0{fill:#00B1E7;}
</style>
<path class="st0" d="M-482.1,454.3c0-2.7-0.4-5.4-1.1-8.1c-1-3.2-3.4-5.8-6.5-7c-6.3-2.2-13.1-2.2-19.4,0c-3.2,1.2-5.6,3.8-6.5,7
	c-1.5,5.3-1.5,10.9,0,16.2c1,3.2,3.4,5.8,6.5,7c3.1,1.1,6.4,1.7,9.7,1.6c3.3,0,6.6-0.6,9.7-1.6c3.2-1.2,5.6-3.8,6.5-7
	C-482.5,459.7-482.1,457-482.1,454.3z M-492.6,454.3c0,1.3-0.2,2.7-0.6,3.9c-0.5,1.7-2,3-3.8,3.4c-1.7,0.3-3.4,0.3-5,0
	c-1.8-0.3-3.2-1.6-3.8-3.4c-0.8-2.6-0.8-5.3,0-7.9c0.5-1.7,2-3,3.8-3.4c1.7-0.3,3.4-0.3,5,0c1.8,0.3,3.2,1.6,3.8,3.4
	C-492.8,451.6-492.6,453-492.6,454.3 M-520.5,498.2c1.5-5.3,1.5-10.9,0-16.2c-1-3.2-3.4-5.8-6.5-7c-6.3-2.2-13.1-2.2-19.4,0
	c-3.2,1.2-5.6,3.8-6.5,7c-1.5,5.3-1.5,10.9,0,16.2c1,3.2,3.4,5.8,6.5,7c6.3,2.2,13.1,2.2,19.4,0
	C-523.9,504.1-521.4,501.5-520.5,498.2 M-529.9,490.2c0,1.3-0.2,2.7-0.6,3.9c-0.5,1.7-2,3-3.8,3.4c-1.7,0.3-3.4,0.3-5,0
	c-1.8-0.3-3.2-1.6-3.8-3.4c-0.8-2.6-0.8-5.3,0-7.9c0.5-1.7,2-3,3.8-3.4c1.7-0.3,3.4-0.3,5,0c1.8,0.3,3.2,1.6,3.8,3.4
	C-530.1,487.5-529.9,488.8-529.9,490.2 M-529.9,454.2h10.5c0-2.7-0.4-5.4-1.1-8c-1-3.2-3.4-5.8-6.5-7c-6.3-2.2-13.1-2.2-19.4,0
	c-3.2,1.2-5.6,3.8-6.5,7c-1.5,5.3-1.5,10.9,0,16.2c1,3.2,3.4,5.8,6.5,7c3.1,1.1,6.4,1.6,9.7,1.6s6.6-0.6,9.7-1.6
	c3.2-1.2,5.6-3.8,6.5-7c0.1-0.4,0.2-0.9,0.4-1.4l-9.9-4.6c-0.1,0.6-0.2,1.2-0.4,1.8c-0.5,1.7-2,3-3.8,3.4c-1.7,0.3-3.4,0.3-5,0
	c-1.8-0.3-3.2-1.6-3.8-3.4c-0.8-2.6-0.8-5.3,0-7.9c0.5-1.7,2-3,3.8-3.4c1.7-0.3,3.4-0.3,5,0c1.8,0.3,3.2,1.6,3.8,3.4
	C-530.1,451.6-529.9,452.9-529.9,454.2 M-515.8,482.1c-0.7,2.6-1.1,5.3-1.1,8.1v23.7h10.5v-23.7c0-1.3,0.2-2.7,0.6-3.9
	c0.5-1.7,2-3,3.8-3.4c1.7-0.3,3.4-0.3,5,0c1.8,0.3,3.2,1.6,3.8,3.4c0.8,2.6,0.8,5.3,0,7.9c-0.5,1.7-2,3-3.7,3.4
	c-1.7,0.3-3.4,0.3-5,0c-0.3-0.1-0.7-0.2-1-0.3l3.6,9.8c3.3,0,6.6-0.6,9.7-1.6c3.2-1.2,5.6-3.8,6.5-7c1.5-5.3,1.5-10.9,0-16.2
	c-1-3.2-3.4-5.8-6.5-7c-6.3-2.2-13.1-2.2-19.4,0C-512.4,476.3-514.8,478.9-515.8,482.1"/>
</svg>
