<?xml version="1.0" encoding="utf-8"?>
<!-- Generator: Adobe Illustrator 19.0.0, SVG Export Plug-In . SVG Version: 6.00 Build 0)  -->
<svg version="1.1" id="Layer_1" xmlns="http://www.w3.org/2000/svg" xmlns:xlink="http://www.w3.org/1999/xlink" x="0px" y="0px"
	 viewBox="0 0 448.9 475.8" style="enable-background:new 0 0 448.9 475.8;" xml:space="preserve">
<style type="text/css">
	.st0{fill:#00A1CC;}
</style>
<path id="XMLID_8_" class="st0" d="M441.8,154.9c4.7-16.3,7-33.2,7-50.4c0-17.1-2.4-34.1-7-50.3c-6.1-20.4-21-36.4-40.8-43.9
	C381.5,3.5,361.1,0,340.4,0c-20.7,0-41,3.5-60.5,10.3c-19.9,7.6-34.8,23.6-40.8,43.9c-4.7,16.4-7.1,33.4-7.1,50.4
	c0,17,2.4,34,7.1,50.4c6,20.3,20.9,36.3,40.8,43.9c19.5,6.8,39.9,10.3,60.5,10.3c20.6,0,41-3.5,60.6-10.3
	C420.9,191.3,435.7,175.3,441.8,154.9 M383.4,104.5c0,8.4-1.3,16.6-3.7,24.5c-3.4,10.7-12.4,18.8-23.5,20.9
	c-5.1,1-10.4,1.5-15.7,1.5c-5.3,0-10.6-0.5-15.7-1.5c-11.1-2.2-20.1-10.2-23.5-20.9c-2.5-7.9-3.7-16.1-3.7-24.5
	c0-8.4,1.3-16.7,3.7-24.5c3.4-10.7,12.4-18.8,23.5-20.9c5.1-1,10.4-1.5,15.7-1.5c5.4,0,10.6,0.5,15.7,1.5
	c11.1,2.2,20.1,10.2,23.5,20.9C382.1,87.9,383.4,96.2,383.4,104.5 M209.8,378.6c4.7-16.3,7-33.2,7-50.4c0-17.1-2.4-34.1-7-50.3
	c-6.1-20.4-21-36.4-40.8-43.9c-19.6-6.8-39.9-10.3-60.6-10.3c-20.7,0-41,3.5-60.5,10.3c-19.9,7.5-34.8,23.5-40.8,43.9
	C2.4,294.2,0,311.2,0,328.2c0,17,2.4,34,7.1,50.4c6,20.3,20.9,36.3,40.8,43.9c19.5,6.8,39.9,10.3,60.5,10.3c20.6,0,41-3.5,60.6-10.3
	C188.8,414.9,203.7,398.9,209.8,378.6 M151.4,328.2c0,8.4-1.3,16.6-3.7,24.5c-3.4,10.7-12.4,18.8-23.5,20.9
	c-5.1,1-10.4,1.5-15.7,1.5c-5.3,0-10.6-0.5-15.7-1.5c-11.1-2.2-20.1-10.2-23.5-20.9c-2.5-7.9-3.7-16.1-3.7-24.5
	c0-8.4,1.3-16.7,3.7-24.5c3.4-10.7,12.4-18.8,23.5-20.9c5.1-1,10.4-1.5,15.7-1.5c5.3,0,10.6,0.5,15.7,1.5
	c11.1,2.2,20.1,10.2,23.5,20.9C150.1,311.6,151.4,319.8,151.4,328.2 M151.4,104.1h65.5c0-17-2.4-33.8-7-50
	c-6.1-20.4-21-36.4-40.8-43.9C149.4,3.5,129.1,0,108.4,0s-41,3.5-60.5,10.3C28,17.8,13.1,33.8,7.1,54.2C2.4,70.6,0,87.5,0,104.5
	c0,17,2.4,34,7.1,50.4c6,20.3,20.9,36.3,40.8,43.9c19.5,6.8,39.9,10.3,60.5,10.3c20.6,0,41-3.5,60.6-10.3
	c19.8-7.5,34.7-23.5,40.8-43.9c0.8-2.8,1.5-5.6,2.2-8.5l-61.7-28.8c-0.6,3.9-1.5,7.7-2.7,11.4c-3.4,10.7-12.4,18.8-23.5,20.9
	c-5.1,1-10.4,1.5-15.7,1.5c-5.3,0-10.6-0.5-15.7-1.5c-11.1-2.2-20.1-10.2-23.5-20.9c-2.5-7.9-3.7-16.1-3.7-24.5
	c0-8.4,1.3-16.7,3.7-24.5c3.4-10.7,12.4-18.8,23.5-20.9c5.1-1,10.4-1.5,15.7-1.5c5.3,0,10.6,0.5,15.7,1.5
	c11.1,2.2,20.1,10.2,23.5,20.9C150.1,87.8,151.3,95.9,151.4,104.1 M239.1,277.8c-4.7,16.4-7.1,33.4-7.1,50.4v147.6h65.5V328.2
	c0-8.4,1.3-16.7,3.7-24.5c3.4-10.7,12.4-18.8,23.5-20.9c5.1-1,10.4-1.5,15.7-1.5c5.4,0,10.6,0.5,15.7,1.5
	c11.1,2.2,20.1,10.2,23.5,20.9c2.5,7.9,3.7,16.2,3.7,24.5c0,8.4-1.3,16.6-3.7,24.5c-3.4,10.7-12.4,18.8-23.5,20.9
	c-5.1,1-10.4,1.5-15.7,1.5c-5.3,0-10.6-0.5-15.7-1.5c-2.2-0.4-4.2-1.1-6.2-1.9l22.2,61c20.5,0,40.8-3.5,60.3-10.3
	c19.8-7.5,34.7-23.5,40.8-43.9c4.7-16.3,7-33.2,7-50.4c0-17.1-2.4-34.1-7-50.4c-6.1-20.4-21-36.4-40.8-43.9
	c-19.6-6.8-39.9-10.3-60.6-10.3c-20.7,0-41,3.5-60.5,10.3C260,241.5,245.1,257.5,239.1,277.8"/>
</svg>
